PathFileType	3	(X/Y/Z)	D:\minhoCalibration\240510\subject5_KPNP\preferred\preferred17.trc
DataRate	CameraRate	NumFrames	NumMarkers	Units	OrigDataRate	OrigDataStartFrame	OrigNumFrames
200.0	200.0	18	10	mm	200.0	247	170	
Frame#	Time	Left_Ankle_Outer1			Left_Ankle_Inner1			Left_Knee_Outer1			Left_Knee_Inner1			Left_Wrist1			Right_Wrist1			Right_Knee_Inner1			Right_Knee_Outer1			Right_Ankle_Inner1			Right_Ankle_Outer1			
		X1	Y1	Z1	X2	Y2	Z2	X3	Y3	Z3	X4	Y4	Z4	X5	Y5	Z5	X6	Y6	Z6	X7	Y7	Z7	X8	Y8	Z8	X9	Y9	Z9	X10	Y10	Z10	
247	1.225	-18.326471	74.020866	-603.83057	-66.750069	85.670769	-589.44434	96.829399	523.30273	-477.28348	11.011719	509.89081	-441.83868	154.15686	966.69183	-601.94336	-106.452	1164.0769	-549.72827	-279.7774	808.16528	-196.4319	-324.6239	884.32843	-211.13156	-536.17596	527.84857	29.483664	-609.63904	576.44879	-10.9794
248	1.23	-18.378801	74.112938	-603.93591	-66.901558	85.513535	-589.49426	96.749214	523.69092	-478.52954	10.599833	510.48767	-443.29025	155.55945	967.93097	-601.34045	-106.95663	1163.0333	-550.14642	-280.22498	799.50702	-203.05649	-325.71329	875.46545	-216.89136	-536.47095	512.06714	14.083683	-609.8407	560.87396	-25.888903
249	1.235	-18.475988	74.093613	-603.91998	-66.876221	85.646255	-589.53229	96.529449	523.94183	-479.69397	10.218707	510.74481	-444.87	157.06395	969.26422	-600.84344	-107.39996	1162.3833	-549.82526	-280.50055	790.84308	-209.938	-326.8519	866.39404	-222.71967	-536.00989	494.23483	-3.7701089	-609.72943	545.25323	-41.335289
250	1.24	-18.495762	74.046196	-604.086	-66.827034	85.59053	-589.78931	96.357674	524.22815	-480.97507	10.005404	510.99207	-446.55566	158.55237	970.59802	-600.13281	-107.00884	1161.8591	-550.61975	-280.74094	782.13293	-216.99149	-328.08963	857.42316	-228.3551	-535.74414	479.10245	-19.766012	-609.0293	529.89233	-57.143497
251	1.245	-18.04957	74.243813	-604.58679	-66.889412	85.654114	-589.76935	96.183243	524.31586	-482.16138	9.7760067	511.30182	-448.33365	161.36739	971.75269	-597.90094	-107.25838	1160.411	-551.65472	-280.77148	773.52466	-224.19212	-328.81778	848.22394	-234.74553	-534.34235	463.85269	-34.765923	-608.08197	514.49219	-73.010071
252	1.25	-18.123714	74.154114	-604.65173	-66.948624	85.454849	-589.85229	96.324684	524.54846	-483.6098	9.4466629	511.54202	-450.02554	163.22055	972.70929	-596.9931	-107.46634	1159.9292	-550.45758	-280.66449	764.75787	-231.50523	-329.25229	838.87195	-241.70772	-532.84833	448.65222	-51.392342	-606.76251	499.31287	-89.401398
253	1.255	-17.954737	74.158089	-604.86249	-66.955925	85.380447	-589.89154	96.412827	524.62341	-484.97232	9.170228	511.87677	-451.77487	164.80795	974.16949	-596.28186	-108.43549	1157.8662	-551.57941	-280.39877	756.25409	-238.91528	-329.89471	830.12152	-248.12285	-530.97626	433.76218	-68.154236	-604.96619	484.2529	-106.17837
254	1.26	-18.313681	73.775467	-604.53448	-66.657204	85.381104	-590.50519	96.455048	524.72845	-486.21576	8.8428459	512.10413	-453.42416	166.37883	975.4884	-595.64813	-108.83922	1157.0948	-550.25989	-280.01437	748.20239	-246.99809	-330.41721	821.43225	-254.7538	-528.59302	419.37766	-85.25769	-602.78271	469.36826	-123.37585
255	1.265	-18.33857	73.366592	-604.67902	-66.799667	85.264549	-590.29358	96.494446	524.70032	-487.38504	8.7227039	512.40686	-455.05762	167.71085	976.62939	-594.80414	-109.4032	1155.9862	-551.56958	-279.17014	739.52191	-254.289	-330.58246	812.64484	-261.82092	-525.68732	405.1424	-102.61062	-600.24506	454.77963	-140.90268
256	1.27	-18.147814	73.312714	-604.63885	-66.537132	85.322495	-590.51123	96.700089	524.97443	-488.53394	8.7426825	512.34619	-456.88818	169.1329	977.81116	-593.93903	-110.09494	1154.9791	-551.73523	-278.52347	731.3634	-261.78864	-330.51898	803.95923	-269.05728	-522.54938	390.88275	-120.45898	-597.31146	440.41272	-158.76546
257	1.275	-18.03167	73.213745	-604.73627	-66.421669	85.268784	-590.54602	96.991272	525.06671	-489.72116	8.7021475	512.60742	-458.46707	170.42451	978.98651	-592.9325	-110.27572	1153.059	-552.60168	-277.49405	723.30719	-269.53946	-330.22766	795.39728	-276.47437	-519.21698	377.11044	-138.42137	-593.93317	426.33273	-176.87579
258	1.28	-17.837637	73.165924	-604.93878	-66.23629	85.193008	-590.64355	97.501358	525.00586	-490.99097	8.6792231	512.7735	-459.96432	171.8369	980.03912	-591.97418	-110.99858	1151.3214	-553.15796	-276.31055	715.4953	-277.32675	-330.14001	787.01831	-283.76053	-515.41132	363.58069	-156.5743	-590.21967	412.51266	-195.47229
259	1.285	-17.312485	73.262802	-605.44061	-66.09127	85.140701	-591.01727	98.020882	525.15118	-492.13184	8.8391132	513.06561	-461.62097	173.07399	981.16333	-591.04407	-111.47271	1149.8318	-554.19324	-274.89774	707.74561	-285.10693	-329.33929	778.75153	-291.27652	-511.42169	350.34479	-174.90263	-586.28516	399.17676	-214.45419
260	1.29	-17.571993	73.002319	-605.19183	-65.585289	85.520889	-591.21692	98.529137	525.33234	-493.13745	8.9982014	513.26453	-463.12476	174.46213	982.24164	-589.87994	-111.94679	1148.0188	-555.87518	-273.52704	700.24963	-292.95215	-329.23624	770.48407	-299.11224	-506.96008	337.41107	-193.59634	-581.77435	386.03497	-233.46663
261	1.295	-17.473936	73.023003	-605.23773	-65.49762	85.465546	-591.2973	99.122391	525.45856	-494.20483	9.2079601	513.40405	-464.62592	175.62279	983.22882	-588.66998	-113.04169	1146.9192	-553.32056	-271.93515	692.79144	-300.79263	-328.7785	762.18286	-306.91656	-502.20728	324.83502	-212.49995	-576.83557	373.26791	-252.72736
262	1.3	-16.975468	73.155479	-605.81525	-65.533951	85.421906	-591.07294	99.55899	525.46387	-495.14426	9.4635506	513.44623	-465.96149	176.78719	984.23364	-587.50769	-113.05373	1143.9327	-557.49188	-270.40704	685.29309	-308.67868	-327.34354	753.836	-315.10968	-496.91672	312.64651	-231.42905	-571.52246	360.78976	-272.08951
263	1.305	-17.36022	72.917229	-605.53528	-65.468628	85.469383	-591.0354	99.891998	525.54352	-495.81659	9.7399178	513.62787	-467.36368	177.86662	985.19666	-586.33899	-114.12118	1142.2817	-558.15356	-268.01883	678.8175	-317.61453	-326.37634	746.00677	-322.88702	-491.28302	300.80063	-250.51799	-565.73132	348.71985	-291.8111
264	1.31	-16.734718	73.197098	-606.02295	-65.305847	85.482643	-591.13745	100.55809	525.52393	-496.82932	9.948122	513.81628	-468.61179	179.01935	986.18402	-585.22571	-114.52927	1139.7382	-559.62244	-265.93622	671.67938	-325.92499	-325.25861	737.96515	-331.16171	-485.26694	289.36322	-269.68945	-559.5257	337.02081	-311.52509
